<?xml version="1.0" standalone="no"?><svg xmlns="http://www.w3.org/2000/svg" viewBox="0 0 1440 320"><path fill="rgb(195, 15, 189)" fill-opacity="1" d="M0,192L0,96L75.8,96L75.8,288L151.6,288L151.6,128L227.4,128L227.4,128L303.2,128L303.2,288L378.9,288L378.9,256L454.7,256L454.7,256L530.5,256L530.5,96L606.3,96L606.3,256L682.1,256L682.1,224L757.9,224L757.9,128L833.7,128L833.7,192L909.5,192L909.5,256L985.3,256L985.3,288L1061.1,288L1061.1,160L1136.8,160L1136.8,160L1212.6,160L1212.6,288L1288.4,288L1288.4,160L1364.2,160L1364.2,256L1440,256L1440,320L1364.2,320L1364.2,320L1288.4,320L1288.4,320L1212.6,320L1212.6,320L1136.8,320L1136.8,320L1061.1,320L1061.1,320L985.3,320L985.3,320L909.5,320L909.5,320L833.7,320L833.7,320L757.9,320L757.9,320L682.1,320L682.1,320L606.3,320L606.3,320L530.5,320L530.5,320L454.7,320L454.7,320L378.9,320L378.9,320L303.2,320L303.2,320L227.4,320L227.4,320L151.6,320L151.6,320L75.8,320L75.8,320L0,320L0,320Z"></path></svg>