<?xml version="1.0" standalone="no"?><svg xmlns="http://www.w3.org/2000/svg" viewBox="0 0 1440 320"><path fill="#fbce03" fill-opacity="1" d="M0,96L0,192L57.6,192L57.6,96L115.2,96L115.2,256L172.8,256L172.8,128L230.4,128L230.4,96L288,96L288,64L345.6,64L345.6,256L403.2,256L403.2,96L460.8,96L460.8,256L518.4,256L518.4,224L576,224L576,128L633.6,128L633.6,96L691.2,96L691.2,96L748.8,96L748.8,288L806.4,288L806.4,224L864,224L864,128L921.6,128L921.6,128L979.2,128L979.2,288L1036.8,288L1036.8,256L1094.4,256L1094.4,192L1152,192L1152,192L1209.6,192L1209.6,32L1267.2,32L1267.2,64L1324.8,64L1324.8,320L1382.4,320L1382.4,96L1440,96L1440,0L1382.4,0L1382.4,0L1324.8,0L1324.8,0L1267.2,0L1267.2,0L1209.6,0L1209.6,0L1152,0L1152,0L1094.4,0L1094.4,0L1036.8,0L1036.8,0L979.2,0L979.2,0L921.6,0L921.6,0L864,0L864,0L806.4,0L806.4,0L748.8,0L748.8,0L691.2,0L691.2,0L633.6,0L633.6,0L576,0L576,0L518.4,0L518.4,0L460.8,0L460.8,0L403.2,0L403.2,0L345.6,0L345.6,0L288,0L288,0L230.4,0L230.4,0L172.8,0L172.8,0L115.2,0L115.2,0L57.6,0L57.6,0L0,0L0,0Z"></path></svg>